<?xml version="1.0" standalone="no"?>
<!DOCTYPE svg PUBLIC "-//W3C//DTD SVG 20010904//EN"
 "http://www.w3.org/TR/2001/REC-SVG-20010904/DTD/svg10.dtd">
<svg version="1.0" xmlns="http://www.w3.org/2000/svg"
 width="500.000000pt" height="500.000000pt" viewBox="0 0 500.000000 500.000000"
 preserveAspectRatio="xMidYMid meet">
<metadata>
Created by potrace 1.12, written by Peter Selinger 2001-2015
</metadata>
<g transform="translate(0.000000,500.000000) scale(0.100000,-0.100000)"
fill="#000000" stroke="none">
<path d="M2458 4875 c-86 -32 -191 -129 -263 -240 -21 -33 -141 -267 -267
-521 -306 -618 -273 -589 -733 -654 -417 -58 -704 -109 -798 -141 -255 -85
-338 -181 -308 -355 26 -145 91 -237 382 -539 395 -409 536 -564 559 -612 21
-44 22 -57 16 -158 -7 -126 -17 -189 -80 -515 -53 -278 -86 -513 -86 -619 1
-240 99 -391 264 -408 139 -14 262 38 1168 501 154 78 198 83 313 33 121 -52
327 -157 559 -284 246 -136 344 -182 483 -229 139 -46 214 -47 302 -3 72 36
105 75 138 167 53 143 42 320 -51 857 -84 483 -91 568 -50 646 31 61 160 204
356 393 239 231 466 472 515 544 81 122 95 274 37 389 -71 141 -253 204 -849
293 -440 66 -519 80 -575 106 -30 14 -63 33 -73 42 -36 32 -125 198 -251 465
-259 550 -312 643 -420 744 -104 98 -203 131 -288 98z"/>
</g>
</svg>
